<svg xmlns="http://www.w3.org/2000/svg" viewBox="-5 -3 74 74" role="img" aria-labelledby="title">
  <title id="title">KTH Study</title>
  <path fill="#fff3e2" d="M25.9 21.3c-.1.3-.3.2-.3 0-.2-4.4-1.6-8.8-6.6-12.2L8.2 2.3C7.4 1.8 8.1.6 8.6 0h10.8c1.7.9 4.1 2.8 5.8 5.3 2.8 4.3 1.4 12.8.7 16Z"/>
  <path fill="#fff3e2" d="M28.6 19.8C29.5 13.3 31.4 5.4 39.1 0h10.1c.5.6 1.2 1.8.5 2.3-1.4 1.2-12.9 9.7-18.7 15.3l-2.1 2.2c-.1.2-.4.3-.3 0Z"/>
  <path fill="#78baf9" d="m28.6 44.9 12.9-9.7c.8-.5 2.1-1 3.5-.5s2.6 1.2 3.5 2l13.4 13.6c1.4 1.5 2 3.1 2 5.3v7.1c.1 3.1-2.1 6.1-5.8 6.1H54c-1.9 0-3.8-.7-5.6-2.4L28.6 46.8c-.4-.2-.4-1.5 0-1.9Z"/>
  <path fill="#1e5db3" d="M25.6 28.2c0-1.2.6-3 1.9-4.3L55.1 2.5c2.5-1.9 8.4-1.9 8.7 4.3v3.5c0 2.1-1.1 4.3-2.8 6L27.1 43.1c-.6.5-1.5-.2-1.5-.8V28.2Z"/>
  <path fill="#1e5db3" d="M5.3 3.5C3.2 2.6.2 4 .1 7.4v49.9c.1 2.4 1.2 4.5 3.3 5.9l7.1 4.2c1.1.7 2.9 1.4 4.6 1.4h1.2c2.8 0 6.1-1.5 6.1-6l.1-44.3c-.1-2.9-1.5-5-4-7.1L5.3 3.5Z"/>
</svg>
